<?xml version="1.0" encoding="UTF-8"?>
<svg xmlns="http://www.w3.org/2000/svg" version="1.1" viewBox="0 0 990 990">
  <defs>
    <style>
      .cls-1 {
        fill: #bfbfa9;
      }

      .cls-2 {
        fill: #eaeace;
      }

      .cls-3 {
        fill: #fdfcdf;
      }

      .cls-4 {
        fill: #4f3663;
      }

      .cls-5 {
        fill: #735a93;
      }

      .cls-6 {
        fill-opacity: .1;
      }

      .cls-7 {
        fill: #78af52;
      }

      .cls-8 {
        fill: #d1d1b8;
      }

      .cls-9 {
        fill-opacity: .2;
      }
    </style>
  </defs>
  <!-- Generator: Adobe Illustrator 28.7.1, SVG Export Plug-In . SVG Version: 1.2.0 Build 142)  -->
  <g>
    <g id="Layer_1">
      <ellipse id="main-circle-drop-shadow" class="cls-6" cx="514.1" cy="514.3" rx="433.1" ry="441.7"/>
      <ellipse id="main-circle" class="cls-4" cx="495.9" cy="495.7" rx="433.1" ry="441.7"/>
      <path id="onion-drop-shadow" class="cls-9" d="M917.6,589.6c3.1-15.4,5.4-31.3,6.8-47.7l-358.1-365.2-28.4,27.9-62.6-63.9-30.4,76.1,46.9,47.8-197.9,545.5,116.1,118.4c19.6,3.8,39.3,6.2,59.5,7.3.4,0,.7,0,1.1,0h.4c7.8.5,15.1.7,22.3.7h2.7c9.4,0,18.7-.3,27.4-.7,2.3,0,4.4-.3,6.4-.4,18.4-1.3,36.4-3.7,53.5-7.2,7.3-1.4,14.4-3.1,21.3-4.7,73.7-18.9,138.8-57.3,195.8-115.4,5.6-5.7,10.9-11.3,16-17,36.4-40.7,63.6-85.2,82-133.4,8.3-21.8,14.8-44.4,19.4-67.9l-.2-.2Z"/>
      <g id="onion">
        <path id="first-layer" class="cls-3" d="M423.9,254v12.5c-1.6,39.1-18.2,67.7-50,85.7-2.7,1.4-5.6,2.8-8.3,4.4-24.3,13.2-47.1,30.6-68.2,52.1-54.8,56-82.2,123.5-82.2,202.5s27.4,146.6,82.2,202.5c54.9,56,121.1,83.9,198.6,83.9h3.7V266.8h0c-26.2-2-51.4-7.3-75.8-12.6h0Z"/>
        <ellipse id="second-layer" class="cls-2" cx="495.9" cy="619.4" rx="214.3" ry="218.5"/>
        <ellipse id="third-layer" class="cls-8" cx="495.9" cy="622.2" rx="147.7" ry="150.6"/>
        <ellipse id="fourth-layer" class="cls-1" cx="495.9" cy="624" rx="85.7" ry="87.4"/>
        <path id="half" class="cls-5" d="M776.8,611.1c0-79.1-27.4-146.6-82.2-202.5-21.7-22.1-45.3-40-70.9-53.5-34.7-16.4-53.3-47-55.6-91.7-23.4,4.6-46.1,5-68.3,3.3h0v630.9h0c76.1-.9,141-28.9,194.9-83.9,54.9-55.9,82.2-123.4,82.2-202.5v-.2Z"/>
        <path id="leafs" class="cls-7" d="M433.3,98.1c-.3,1.2-.6,2.4-.8,3.4-18.8,75.6,1,125.7,59.5,150.4,17.1-57.8-.8-107.9-54.1-150.4-1.3-1-2.8-2.2-4.4-3.4h-.2ZM507.2,251.9c-4.9-37.9,14.9-63.1,59.2-75.1-4.8,41.8-24.5,66.8-59.2,75.1"/>
      </g>
    </g>
  </g>
</svg>