<?xml version="1.0" encoding="UTF-8"?>
<svg xmlns="http://www.w3.org/2000/svg" version="1.1" xmlns:xlink="http://www.w3.org/1999/xlink" viewBox="0 0 184.3 78.2">
  <!-- Generator: Adobe Illustrator 29.1.0, SVG Export Plug-In . SVG Version: 2.1.0 Build 142)  -->
  <defs>
    <style>
      .st0 {
        fill: url(#linear-gradient2);
      }

      .st1 {
        fill: url(#radial-gradient2);
      }

      .st1, .st2, .st3, .st4, .st5, .st6, .st7, .st8, .st9, .st10, .st11, .st12, .st13, .st14, .st15, .st16, .st17, .st18, .st19, .st20, .st21, .st22, .st23, .st24, .st25, .st26, .st27 {
        mix-blend-mode: screen;
      }

      .st2 {
        fill: url(#radial-gradient17);
      }

      .st3 {
        fill: url(#radial-gradient3);
      }

      .st4 {
        fill: url(#linear-gradient9);
      }

      .st4, .st12, .st14, .st17, .st20, .st25, .st27 {
        opacity: .5;
      }

      .st28 {
        fill: url(#linear-gradient10);
      }

      .st5 {
        fill: url(#radial-gradient10);
      }

      .st6 {
        fill: url(#radial-gradient4);
      }

      .st7 {
        fill: url(#radial-gradient1);
      }

      .st8 {
        fill: url(#radial-gradient5);
      }

      .st29 {
        fill: #fff;
      }

      .st30 {
        fill: url(#linear-gradient8);
      }

      .st9 {
        fill: url(#linear-gradient15);
      }

      .st31 {
        fill: url(#linear-gradient16);
      }

      .st10 {
        fill: url(#radial-gradient12);
      }

      .st11 {
        fill: url(#radial-gradient8);
      }

      .st32 {
        fill: #171717;
      }

      .st12 {
        fill: url(#linear-gradient7);
      }

      .st13 {
        fill: url(#radial-gradient);
      }

      .st33 {
        isolation: isolate;
      }

      .st34 {
        fill: url(#linear-gradient12);
      }

      .st14 {
        fill: url(#linear-gradient17);
      }

      .st15 {
        fill: url(#radial-gradient7);
      }

      .st16 {
        fill: url(#radial-gradient11);
      }

      .st17 {
        fill: url(#linear-gradient13);
      }

      .st35 {
        fill: url(#linear-gradient4);
      }

      .st18 {
        fill: url(#radial-gradient9);
      }

      .st36 {
        fill: url(#linear-gradient14);
      }

      .st19 {
        fill: url(#radial-gradient14);
      }

      .st20 {
        fill: url(#linear-gradient3);
      }

      .st21 {
        fill: url(#radial-gradient6);
      }

      .st22 {
        fill: url(#radial-gradient13);
      }

      .st23 {
        fill: url(#linear-gradient1);
        opacity: .6;
      }

      .st24 {
        fill: url(#radial-gradient16);
      }

      .st25 {
        fill: url(#linear-gradient5);
      }

      .st37 {
        fill: url(#linear-gradient6);
      }

      .st26 {
        fill: url(#radial-gradient15);
      }

      .st38 {
        fill: url(#linear-gradient);
      }

      .st27 {
        fill: url(#linear-gradient11);
      }
    </style>
    <radialGradient id="radial-gradient" cx="33.4" cy="62.9" fx="33.4" fy="62.9" r="16" gradientUnits="userSpaceOnUse">
      <stop offset="0" stop-color="#ccc"/>
      <stop offset=".1" stop-color="#63beaa"/>
      <stop offset=".2" stop-color="#1bb593"/>
      <stop offset=".2" stop-color="#00b28a"/>
      <stop offset=".3" stop-color="#008869"/>
      <stop offset=".5" stop-color="#00664e"/>
      <stop offset=".6" stop-color="#004c39"/>
      <stop offset=".7" stop-color="#003929"/>
      <stop offset=".9" stop-color="#002d20"/>
      <stop offset="1" stop-color="#002a1e"/>
    </radialGradient>
    <radialGradient id="radial-gradient1" cx="118.8" fx="118.8" xlink:href="#radial-gradient"/>
    <radialGradient id="radial-gradient2" cx="31.9" cy="9.3" fx="31.9" fy="9.3" r="20" xlink:href="#radial-gradient"/>
    <radialGradient id="radial-gradient3" cx="72.7" cy="49.1" fx="72.7" fy="49.1" r="23.2" xlink:href="#radial-gradient"/>
    <radialGradient id="radial-gradient4" cx="33.3" cy="34" fx="33.3" fy="34" r="15.3" xlink:href="#radial-gradient"/>
    <radialGradient id="radial-gradient5" cx="97.6" cy="25.9" fx="97.6" fy="25.9" r="4.5" xlink:href="#radial-gradient"/>
    <radialGradient id="radial-gradient6" cx="120.9" cy="33.8" fx="120.9" fy="33.8" r="14" xlink:href="#radial-gradient"/>
    <radialGradient id="radial-gradient7" cx="153.5" cy="49.1" fx="153.5" fy="49.1" r="21.8" xlink:href="#radial-gradient"/>
    <radialGradient id="radial-gradient8" cx="175.5" cy="49.1" fx="175.5" fy="49.1" r="20" xlink:href="#radial-gradient"/>
    <linearGradient id="linear-gradient" x1="373.4" y1="47.4" x2="373.4" y2="102.2" gradientUnits="userSpaceOnUse">
      <stop offset="0" stop-color="#b5b5b5"/>
      <stop offset=".4" stop-color="#818181"/>
      <stop offset=".8" stop-color="#595959"/>
      <stop offset="1" stop-color="#4a4a4a"/>
    </linearGradient>
    <radialGradient id="radial-gradient9" cx="374.2" cy="116.2" fx="374.2" fy="116.2" r="49.5" gradientUnits="userSpaceOnUse">
      <stop offset="0" stop-color="#ccc"/>
      <stop offset="0" stop-color="#bababa"/>
      <stop offset=".2" stop-color="#898989"/>
      <stop offset=".3" stop-color="#5f5f5f"/>
      <stop offset=".4" stop-color="#3c3c3c"/>
      <stop offset=".6" stop-color="#222"/>
      <stop offset=".7" stop-color="#0f0f0f"/>
      <stop offset=".8" stop-color="#030303"/>
      <stop offset="1" stop-color="#000"/>
    </radialGradient>
    <linearGradient id="linear-gradient1" x1="373.4" y1="102.3" x2="373.4" y2="41.7" gradientUnits="userSpaceOnUse">
      <stop offset="0" stop-color="#000"/>
      <stop offset=".1" stop-color="#030303"/>
      <stop offset=".3" stop-color="#0f0f0f"/>
      <stop offset=".4" stop-color="#222"/>
      <stop offset=".5" stop-color="#3c3c3c"/>
      <stop offset=".7" stop-color="#5f5f5f"/>
      <stop offset=".8" stop-color="#898989"/>
      <stop offset=".9" stop-color="#bababa"/>
      <stop offset="1" stop-color="#e8e8e8"/>
    </linearGradient>
    <linearGradient id="linear-gradient2" x1="460.7" y1="47.4" x2="460.7" y2="102.2" gradientUnits="userSpaceOnUse">
      <stop offset="0" stop-color="#3697ff"/>
      <stop offset=".1" stop-color="#2d8dfd"/>
      <stop offset=".7" stop-color="#0c65f6"/>
      <stop offset="1" stop-color="#0056f4"/>
    </linearGradient>
    <radialGradient id="radial-gradient10" cx="461.5" cy="116.2" fx="461.5" fy="116.2" r="49.5" gradientUnits="userSpaceOnUse">
      <stop offset="0" stop-color="#ccc"/>
      <stop offset="0" stop-color="#7cb0e2"/>
      <stop offset=".2" stop-color="#3497f7"/>
      <stop offset=".2" stop-color="#198eff"/>
      <stop offset=".2" stop-color="#1787f4"/>
      <stop offset=".3" stop-color="#1268bb"/>
      <stop offset=".4" stop-color="#0d4c89"/>
      <stop offset=".5" stop-color="#09355f"/>
      <stop offset=".6" stop-color="#05213c"/>
      <stop offset=".7" stop-color="#031222"/>
      <stop offset=".8" stop-color="#01080f"/>
      <stop offset=".9" stop-color="#000203"/>
      <stop offset="1" stop-color="#000"/>
    </radialGradient>
    <linearGradient id="linear-gradient3" x1="460.7" y1="102.3" x2="460.7" y2="41.7" gradientUnits="userSpaceOnUse">
      <stop offset="0" stop-color="#000"/>
      <stop offset=".1" stop-color="#000203"/>
      <stop offset=".2" stop-color="#020b0f"/>
      <stop offset=".3" stop-color="#061922"/>
      <stop offset=".4" stop-color="#0b2c3c"/>
      <stop offset=".5" stop-color="#12455f"/>
      <stop offset=".6" stop-color="#1a6489"/>
      <stop offset=".7" stop-color="#2489bb"/>
      <stop offset=".7" stop-color="#2fb3f4"/>
      <stop offset=".8" stop-color="#32bbff"/>
      <stop offset=".8" stop-color="#47c0fc"/>
      <stop offset=".9" stop-color="#7dcdf5"/>
      <stop offset="1" stop-color="#d3e3ea"/>
      <stop offset="1" stop-color="#e8e8e8"/>
    </linearGradient>
    <linearGradient id="linear-gradient4" x1="460.7" y1="126.2" x2="460.7" y2="181" gradientUnits="userSpaceOnUse">
      <stop offset="0" stop-color="#ffe86b"/>
      <stop offset=".3" stop-color="#ffa54a"/>
      <stop offset=".6" stop-color="#ff652a"/>
      <stop offset=".9" stop-color="#ff3d16"/>
      <stop offset="1" stop-color="#ff2e0f"/>
    </linearGradient>
    <radialGradient id="radial-gradient11" cx="461.5" cy="195" fx="461.5" fy="195" r="49.5" gradientUnits="userSpaceOnUse">
      <stop offset="0" stop-color="#ccc"/>
      <stop offset=".1" stop-color="#d8b363"/>
      <stop offset=".2" stop-color="#e1a31b"/>
      <stop offset=".2" stop-color="#e59d00"/>
      <stop offset=".3" stop-color="#ba7f00"/>
      <stop offset=".4" stop-color="#895e00"/>
      <stop offset=".5" stop-color="#5f4100"/>
      <stop offset=".6" stop-color="#3c2900"/>
      <stop offset=".7" stop-color="#221700"/>
      <stop offset=".8" stop-color="#0f0a00"/>
      <stop offset=".9" stop-color="#030200"/>
      <stop offset="1" stop-color="#000"/>
    </radialGradient>
    <linearGradient id="linear-gradient5" x1="460.7" y1="181.1" x2="460.7" y2="120.5" gradientUnits="userSpaceOnUse">
      <stop offset="0" stop-color="#000"/>
      <stop offset=".1" stop-color="#030201"/>
      <stop offset=".2" stop-color="#0f0804"/>
      <stop offset=".3" stop-color="#22120a"/>
      <stop offset=".4" stop-color="#3c2012"/>
      <stop offset=".5" stop-color="#5f331c"/>
      <stop offset=".6" stop-color="#894928"/>
      <stop offset=".7" stop-color="#bb6437"/>
      <stop offset=".7" stop-color="#f48348"/>
      <stop offset=".8" stop-color="#ff894c"/>
      <stop offset=".8" stop-color="#fb9561"/>
      <stop offset=".9" stop-color="#f3b697"/>
      <stop offset="1" stop-color="#e8e8e8"/>
    </linearGradient>
    <linearGradient id="linear-gradient6" x1="373.4" y1="126.2" x2="373.4" y2="181" gradientUnits="userSpaceOnUse">
      <stop offset="0" stop-color="#c97aff"/>
      <stop offset=".1" stop-color="#b266ee"/>
      <stop offset=".5" stop-color="#722fc0"/>
      <stop offset=".8" stop-color="#4a0da3"/>
      <stop offset="1" stop-color="#3b0099"/>
    </linearGradient>
    <radialGradient id="radial-gradient12" cx="374.2" cy="195" fx="374.2" fy="195" r="49.5" gradientUnits="userSpaceOnUse">
      <stop offset="0" stop-color="#ccc"/>
      <stop offset=".1" stop-color="#dca9e8"/>
      <stop offset=".2" stop-color="#e98eff"/>
      <stop offset=".2" stop-color="#df87f4"/>
      <stop offset=".3" stop-color="#ab68bb"/>
      <stop offset=".4" stop-color="#7d4c89"/>
      <stop offset=".5" stop-color="#57355f"/>
      <stop offset=".6" stop-color="#37213c"/>
      <stop offset=".7" stop-color="#1f1222"/>
      <stop offset=".8" stop-color="#0d080f"/>
      <stop offset=".9" stop-color="#030203"/>
      <stop offset="1" stop-color="#000"/>
    </radialGradient>
    <linearGradient id="linear-gradient7" x1="373.4" y1="181.1" x2="373.4" y2="120.5" gradientUnits="userSpaceOnUse">
      <stop offset="0" stop-color="#000"/>
      <stop offset=".1" stop-color="#030103"/>
      <stop offset=".2" stop-color="#0c060f"/>
      <stop offset=".3" stop-color="#1c0e22"/>
      <stop offset=".4" stop-color="#331a3c"/>
      <stop offset=".5" stop-color="#50295f"/>
      <stop offset=".6" stop-color="#743c89"/>
      <stop offset=".7" stop-color="#9e52bb"/>
      <stop offset=".7" stop-color="#ce6bf4"/>
      <stop offset=".8" stop-color="#d870ff"/>
      <stop offset=".8" stop-color="#da84fa"/>
      <stop offset=".9" stop-color="#e1baf0"/>
      <stop offset="1" stop-color="#e8e8e8"/>
    </linearGradient>
    <linearGradient id="linear-gradient8" x1="286.1" y1="126.2" x2="286.1" y2="181" gradientUnits="userSpaceOnUse">
      <stop offset="0" stop-color="#ff99a6"/>
      <stop offset=".2" stop-color="#fd7791"/>
      <stop offset=".6" stop-color="#fb376a"/>
      <stop offset=".8" stop-color="#f90f51"/>
      <stop offset="1" stop-color="#f90048"/>
    </linearGradient>
    <radialGradient id="radial-gradient13" cx="287" cy="195" fx="287" fy="195" r="49.5" gradientUnits="userSpaceOnUse">
      <stop offset="0" stop-color="#ccc"/>
      <stop offset=".1" stop-color="#e8a9b5"/>
      <stop offset=".2" stop-color="#ff8ea3"/>
      <stop offset=".2" stop-color="#f4879c"/>
      <stop offset=".3" stop-color="#bb6877"/>
      <stop offset=".4" stop-color="#894c57"/>
      <stop offset=".5" stop-color="#5f353c"/>
      <stop offset=".6" stop-color="#3c2126"/>
      <stop offset=".7" stop-color="#221215"/>
      <stop offset=".8" stop-color="#0f0809"/>
      <stop offset=".9" stop-color="#030202"/>
      <stop offset="1" stop-color="#000"/>
    </radialGradient>
    <linearGradient id="linear-gradient9" x1="286.1" y1="181.1" x2="286.1" y2="120.5" gradientUnits="userSpaceOnUse">
      <stop offset="0" stop-color="#000"/>
      <stop offset=".1" stop-color="#030202"/>
      <stop offset=".2" stop-color="#0f0909"/>
      <stop offset=".3" stop-color="#221414"/>
      <stop offset=".4" stop-color="#3c2424"/>
      <stop offset=".5" stop-color="#5f3939"/>
      <stop offset=".6" stop-color="#895253"/>
      <stop offset=".7" stop-color="#bb7072"/>
      <stop offset=".7" stop-color="#f49294"/>
      <stop offset=".8" stop-color="#ff999b"/>
      <stop offset=".8" stop-color="#f8adaf"/>
      <stop offset="1" stop-color="#e9e3e3"/>
      <stop offset="1" stop-color="#e8e8e8"/>
    </linearGradient>
    <linearGradient id="linear-gradient10" x1="460.7" y1="205" x2="460.7" y2="259.8" gradientUnits="userSpaceOnUse">
      <stop offset="0" stop-color="#5ac100"/>
      <stop offset=".4" stop-color="#3d8d00"/>
      <stop offset=".8" stop-color="#276500"/>
      <stop offset="1" stop-color="#1f5600"/>
    </linearGradient>
    <radialGradient id="radial-gradient14" cx="461.5" cy="273.8" fx="461.5" fy="273.8" r="49.5" gradientUnits="userSpaceOnUse">
      <stop offset="0" stop-color="#ccc"/>
      <stop offset=".1" stop-color="#63ce8e"/>
      <stop offset=".2" stop-color="#1bd064"/>
      <stop offset=".2" stop-color="#00d154"/>
      <stop offset=".3" stop-color="#00ba4a"/>
      <stop offset=".4" stop-color="#008937"/>
      <stop offset=".5" stop-color="#005f26"/>
      <stop offset=".6" stop-color="#003c18"/>
      <stop offset=".7" stop-color="#00220d"/>
      <stop offset=".8" stop-color="#000f06"/>
      <stop offset=".9" stop-color="#000301"/>
      <stop offset="1" stop-color="#000"/>
    </radialGradient>
    <linearGradient id="linear-gradient11" x1="460.7" y1="259.9" x2="460.7" y2="199.3" gradientUnits="userSpaceOnUse">
      <stop offset="0" stop-color="#000"/>
      <stop offset=".1" stop-color="#000301"/>
      <stop offset=".2" stop-color="#000f04"/>
      <stop offset=".3" stop-color="#00220b"/>
      <stop offset=".4" stop-color="#003c13"/>
      <stop offset=".5" stop-color="#005f1f"/>
      <stop offset=".6" stop-color="#00892c"/>
      <stop offset=".7" stop-color="#00ba3c"/>
      <stop offset=".8" stop-color="#00c13f"/>
      <stop offset=".8" stop-color="#15c44e"/>
      <stop offset=".8" stop-color="#4bcd76"/>
      <stop offset=".9" stop-color="#a2dcb5"/>
      <stop offset="1" stop-color="#e8e8e8"/>
    </linearGradient>
    <linearGradient id="linear-gradient12" x1="373.4" y1="205" x2="373.4" y2="259.8" gradientUnits="userSpaceOnUse">
      <stop offset="0" stop-color="#d69300"/>
      <stop offset=".4" stop-color="#ac7000"/>
      <stop offset=".8" stop-color="#845000"/>
      <stop offset="1" stop-color="#754400"/>
    </linearGradient>
    <radialGradient id="radial-gradient15" cx="374.2" cy="273.8" fx="374.2" fy="273.8" r="49.5" gradientUnits="userSpaceOnUse">
      <stop offset="0" stop-color="#ccc"/>
      <stop offset="0" stop-color="#e1c985"/>
      <stop offset=".2" stop-color="#f6c63e"/>
      <stop offset=".2" stop-color="#ffc623"/>
      <stop offset=".2" stop-color="#f4bd21"/>
      <stop offset=".3" stop-color="#bb9119"/>
      <stop offset=".4" stop-color="#896a12"/>
      <stop offset=".5" stop-color="#5f490d"/>
      <stop offset=".6" stop-color="#3c2f08"/>
      <stop offset=".7" stop-color="#221a04"/>
      <stop offset=".8" stop-color="#0f0b02"/>
      <stop offset=".9" stop-color="#030200"/>
      <stop offset="1" stop-color="#000"/>
    </radialGradient>
    <linearGradient id="linear-gradient13" x1="373.4" y1="259.9" x2="373.4" y2="199.3" gradientUnits="userSpaceOnUse">
      <stop offset="0" stop-color="#000"/>
      <stop offset=".1" stop-color="#030300"/>
      <stop offset=".2" stop-color="#0f0c03"/>
      <stop offset=".3" stop-color="#221d08"/>
      <stop offset=".4" stop-color="#3c340e"/>
      <stop offset=".5" stop-color="#5f5116"/>
      <stop offset=".6" stop-color="#897620"/>
      <stop offset=".7" stop-color="#bba12c"/>
      <stop offset=".7" stop-color="#f4d13a"/>
      <stop offset=".8" stop-color="#ffdb3d"/>
      <stop offset=".8" stop-color="#fcdc52"/>
      <stop offset=".9" stop-color="#f4e088"/>
      <stop offset="1" stop-color="#e9e7de"/>
      <stop offset="1" stop-color="#e8e8e8"/>
    </linearGradient>
    <linearGradient id="linear-gradient14" x1="261.5" y1="-80.7" x2="261.5" y2="-25.9" gradientUnits="userSpaceOnUse">
      <stop offset="0" stop-color="#616161"/>
      <stop offset=".4" stop-color="#373737"/>
      <stop offset=".8" stop-color="#0f0f0f"/>
      <stop offset="1" stop-color="#000"/>
    </linearGradient>
    <radialGradient id="radial-gradient16" cx="262.4" cy="-11.9" fx="262.4" fy="-11.9" r="49.5" gradientUnits="userSpaceOnUse">
      <stop offset="0" stop-color="#a8a8a8"/>
      <stop offset="0" stop-color="#888"/>
      <stop offset=".2" stop-color="#5f5f5f"/>
      <stop offset=".4" stop-color="#3c3c3c"/>
      <stop offset=".5" stop-color="#222"/>
      <stop offset=".7" stop-color="#0f0f0f"/>
      <stop offset=".8" stop-color="#030303"/>
      <stop offset="1" stop-color="#000"/>
    </radialGradient>
    <linearGradient id="linear-gradient15" x1="261.5" y1="-25.7" x2="261.5" y2="-86.4" gradientUnits="userSpaceOnUse">
      <stop offset="0" stop-color="#000"/>
      <stop offset=".2" stop-color="#030303"/>
      <stop offset=".3" stop-color="#0f0f0f"/>
      <stop offset=".5" stop-color="#222"/>
      <stop offset=".6" stop-color="#3c3c3c"/>
      <stop offset=".8" stop-color="#5f5f5f"/>
      <stop offset=".9" stop-color="#888"/>
      <stop offset="1" stop-color="#a8a8a8"/>
    </linearGradient>
    <linearGradient id="linear-gradient16" x1="147.2" y1="-81.4" x2="147.2" y2="-26.6" gradientUnits="userSpaceOnUse">
      <stop offset="0" stop-color="#47daff"/>
      <stop offset=".4" stop-color="#2aa2ac"/>
      <stop offset=".7" stop-color="#13766b"/>
      <stop offset=".9" stop-color="#055b43"/>
      <stop offset="1" stop-color="#005134"/>
    </linearGradient>
    <radialGradient id="radial-gradient17" cx="148" cy="-12.6" fx="148" fy="-12.6" r="49.5" gradientUnits="userSpaceOnUse">
      <stop offset="0" stop-color="#ccc"/>
      <stop offset=".1" stop-color="#63beaa"/>
      <stop offset=".2" stop-color="#1bb593"/>
      <stop offset=".2" stop-color="#00b28a"/>
      <stop offset=".3" stop-color="#00886a"/>
      <stop offset=".4" stop-color="#005f49"/>
      <stop offset=".5" stop-color="#003c2f"/>
      <stop offset=".6" stop-color="#00221a"/>
      <stop offset=".8" stop-color="#000f0b"/>
      <stop offset=".9" stop-color="#000302"/>
      <stop offset="1" stop-color="#000"/>
    </radialGradient>
    <linearGradient id="linear-gradient17" x1="147.2" y1="-26.4" x2="147.2" y2="-87.1" gradientUnits="userSpaceOnUse">
      <stop offset="0" stop-color="#000"/>
      <stop offset=".1" stop-color="#000302"/>
      <stop offset=".2" stop-color="#000f09"/>
      <stop offset=".3" stop-color="#002214"/>
      <stop offset=".4" stop-color="#003c25"/>
      <stop offset=".5" stop-color="#005f3a"/>
      <stop offset=".6" stop-color="#008954"/>
      <stop offset=".7" stop-color="#00ba72"/>
      <stop offset=".8" stop-color="#00ea90"/>
      <stop offset=".8" stop-color="#15e997"/>
      <stop offset=".8" stop-color="#4be9ac"/>
      <stop offset=".9" stop-color="#a2e8cd"/>
      <stop offset="1" stop-color="#e8e8e8"/>
    </linearGradient>
  </defs>
  <g class="st33">
    <g id="Layer_1">
      <polygon class="st13" points="42.2 68.8 39 68.8 35.1 61.8 39 56.1 39 48.5 15.9 48.5 15.9 52.1 15.9 67 24.5 67.1 24.7 56.1 30.3 56 27.1 61.8 35.3 77.3 50.9 77.3 50.9 48.5 42.2 48.5 42.2 68.8"/>
      <polygon class="st7" points="127.6 68.8 124.4 68.8 120.5 61.8 124.4 56.1 124.4 48.5 101.3 48.5 101.3 52.1 101.3 67 109.9 67.1 110.1 56.1 115.7 56 112.5 61.8 120.7 77.3 136.3 77.3 136.3 48.5 127.6 48.5 127.6 68.8"/>
      <polygon class="st1" points="27.6 18.1 37 18.1 58.7 .4 50.2 .4 43.7 .4 33.5 9.8 26.8 .4 5 .4 12.8 8.5 21.6 8.6 27.6 18.1"/>
      <path class="st3" d="M55.1,30.4v16.1h22.3v-16.1h4.2v43.5l8.6,3V21.3h-35.1v9.1ZM63.7,30.3h5.2v10h-5.1v-10h0Z"/>
      <path class="st6" d="M15.7,30.4v16.1h22.3v-16.1h4.2v16.2h8.6c0,0,0-25.3,0-25.3H15.7v9.1ZM24.2,30.3h5.2v10h-5.1v-10h0Z"/>
      <rect class="st8" x="93.2" y="21.4" width="8.8" height="9"/>
      <polygon class="st21" points="105.7 21.2 105.6 30.4 112.3 30.4 112.3 40.4 121 40.4 121.1 30.4 127.3 30.4 127.5 46.4 136.1 46.4 136 21.2 105.7 21.2"/>
      <polygon class="st15" points="148.9 30.5 166.8 30.3 166.7 21.2 140.3 21.2 140.3 46.5 157.8 46.5 157.8 73.4 166.5 76.9 166.5 39.1 148.9 39.1 148.9 30.5"/>
      <polygon class="st11" points="180.1 21.2 170.9 21.2 170.9 71.9 179.9 76.9 180.1 21.2"/>
      <g>
        <rect class="st29" x="229.9" y="-3.2" width="288" height="288"/>
        <g>
          <g>
            <rect class="st38" x="334.5" y="47.2" width="77.8" height="55.5" rx="9.2" ry="9.2"/>
            <rect class="st18" x="336.5" y="48.6" width="73.9" height="52.7" rx="9.2" ry="9.2"/>
            <rect class="st23" x="335.8" y="48.6" width="75.2" height="26.9" rx="8" ry="8"/>
          </g>
          <g>
            <rect class="st0" x="421.8" y="47.2" width="77.8" height="55.5" rx="9.2" ry="9.2"/>
            <rect class="st5" x="423.8" y="48.6" width="73.9" height="52.7" rx="9.2" ry="9.2"/>
            <rect class="st20" x="423.1" y="48.6" width="75.2" height="26.9" rx="8" ry="8"/>
          </g>
          <g>
            <rect class="st35" x="421.8" y="126" width="77.8" height="55.5" rx="9.2" ry="9.2"/>
            <rect class="st16" x="423.8" y="127.4" width="73.9" height="52.7" rx="9.2" ry="9.2"/>
            <rect class="st25" x="423.1" y="127.4" width="75.2" height="26.9" rx="8" ry="8"/>
          </g>
          <g>
            <rect class="st37" x="334.5" y="126" width="77.8" height="55.5" rx="9.2" ry="9.2"/>
            <rect class="st10" x="336.5" y="127.4" width="73.9" height="52.7" rx="9.2" ry="9.2"/>
            <rect class="st12" x="335.8" y="127.4" width="75.2" height="26.9" rx="8" ry="8"/>
          </g>
          <g>
            <rect class="st30" x="247.2" y="126" width="77.8" height="55.5" rx="9.2" ry="9.2"/>
            <rect class="st22" x="249.2" y="127.4" width="73.9" height="52.7" rx="9.2" ry="9.2"/>
            <rect class="st4" x="248.5" y="127.4" width="75.2" height="26.9" rx="8" ry="8"/>
          </g>
          <g>
            <rect class="st28" x="421.8" y="204.8" width="77.8" height="55.5" rx="9.2" ry="9.2"/>
            <rect class="st19" x="423.8" y="206.2" width="73.9" height="52.7" rx="9.2" ry="9.2"/>
            <rect class="st27" x="423.1" y="206.2" width="75.2" height="26.9" rx="8" ry="8"/>
          </g>
          <g>
            <rect class="st34" x="334.5" y="204.8" width="77.8" height="55.5" rx="9.2" ry="9.2"/>
            <rect class="st26" x="336.5" y="206.2" width="73.9" height="52.7" rx="9.2" ry="9.2"/>
            <rect class="st17" x="335.8" y="206.2" width="75.2" height="26.9" rx="8" ry="8"/>
          </g>
        </g>
        <g>
          <path class="st32" d="M293.8,23.1h.6v3.1c-.4.3-.8.6-1.3.8-.5.2-1.1.3-1.6.3-.8,0-1.6-.2-2.2-.5-.7-.4-1.2-.9-1.6-1.5-.4-.6-.6-1.4-.6-2.2s.2-1.5.6-2.2c.4-.6.9-1.1,1.6-1.5.7-.4,1.4-.5,2.2-.5s1.2,0,1.7.3c.5.2,1,.5,1.3.9l-.4.4c-.3-.3-.7-.6-1.2-.8-.4-.2-.9-.2-1.4-.2s-1.4.2-1.9.5c-.6.3-1,.8-1.4,1.3-.3.6-.5,1.2-.5,1.9s.2,1.3.5,1.9c.3.6.8,1,1.4,1.3.6.3,1.2.5,1.9.5s1.7-.3,2.4-.8v-2.9Z"/>
          <path class="st32" d="M298.1,18.4h.6v8.8h-.6v-8.8Z"/>
          <path class="st32" d="M303.2,26.9c-.5-.3-.8-.6-1.1-1.1-.3-.5-.4-1-.4-1.6s.1-1.1.4-1.6c.3-.5.6-.9,1.1-1.1.5-.3,1-.4,1.6-.4s1.1.1,1.6.4c.5.3.8.6,1.1,1.1.3.5.4,1,.4,1.6s-.1,1.1-.4,1.6c-.3.5-.6.9-1.1,1.1-.5.3-1,.4-1.6.4s-1.1-.1-1.6-.4ZM306.1,26.4c.4-.2.7-.5.9-.9.2-.4.3-.8.3-1.4s-.1-1-.3-1.4c-.2-.4-.5-.7-.9-.9-.4-.2-.8-.3-1.3-.3s-.9.1-1.3.3c-.4.2-.7.5-.9.9s-.3.8-.3,1.4.1,1,.3,1.4c.2.4.5.7.9.9.4.2.8.3,1.3.3s.9-.1,1.3-.3Z"/>
          <path class="st32" d="M311.1,27.1c-.5-.2-.8-.3-1.1-.6l.3-.5c.3.2.6.4,1,.5.4.1.8.2,1.3.2.6,0,1.1-.1,1.4-.3.3-.2.4-.5.4-.9s0-.5-.2-.6c-.2-.2-.4-.3-.6-.3-.2,0-.6-.1-1-.2-.5,0-.9-.2-1.2-.3-.3-.1-.6-.3-.8-.5-.2-.2-.3-.5-.3-1s.2-.9.6-1.2c.4-.3,1-.5,1.7-.5s.8,0,1.2.2c.4.1.7.3,1,.4l-.3.5c-.3-.2-.5-.3-.9-.4-.3,0-.7-.1-1-.1-.6,0-1,.1-1.3.3-.3.2-.4.5-.4.8s0,.5.2.6c.2.2.4.3.6.3.2,0,.6.2,1,.2.5,0,.9.2,1.2.3.3,0,.5.3.8.5.2.2.3.5.3.9s-.2.9-.6,1.2c-.4.3-1,.5-1.8.5s-1,0-1.4-.2Z"/>
          <path class="st32" d="M318,27.1c-.5-.2-.8-.3-1.1-.6l.3-.5c.3.2.6.4,1,.5.4.1.8.2,1.3.2.6,0,1.1-.1,1.4-.3.3-.2.4-.5.4-.9s0-.5-.2-.6c-.2-.2-.4-.3-.6-.3-.2,0-.6-.1-1-.2-.5,0-.9-.2-1.2-.3-.3-.1-.6-.3-.8-.5-.2-.2-.3-.5-.3-1s.2-.9.6-1.2c.4-.3,1-.5,1.7-.5s.8,0,1.2.2c.4.1.7.3,1,.4l-.3.5c-.3-.2-.5-.3-.9-.4-.3,0-.7-.1-1-.1-.6,0-1,.1-1.3.3-.3.2-.4.5-.4.8s0,.5.2.6c.2.2.4.3.6.3.2,0,.6.2,1,.2.5,0,.9.2,1.2.3.3,0,.5.3.8.5.2.2.3.5.3.9s-.2.9-.6,1.2c-.4.3-1,.5-1.8.5s-1,0-1.4-.2Z"/>
          <path class="st32" d="M329.6,21l-3.2,7.1c-.2.5-.5.9-.8,1.2-.3.2-.7.3-1.1.3s-.6,0-.8-.1c-.2,0-.5-.2-.6-.4l.3-.5c.3.3.7.5,1.2.5s.6,0,.8-.2c.2-.2.4-.5.6-.9l.3-.8-2.8-6.2h.6l2.5,5.6,2.5-5.6h.6Z"/>
          <path class="st32" d="M337,27c-.6-.2-1-.5-1.3-.8l.3-.5c.3.3.7.6,1.2.8.5.2,1,.3,1.6.3.8,0,1.4-.2,1.8-.5.4-.3.6-.7.6-1.2s-.1-.7-.3-.9c-.2-.2-.5-.4-.8-.5-.3-.1-.7-.2-1.3-.4-.6-.2-1.1-.3-1.5-.4-.4-.1-.7-.4-.9-.7-.3-.3-.4-.7-.4-1.2s.1-.8.3-1.1c.2-.3.5-.6,1-.8.4-.2,1-.3,1.6-.3s.9,0,1.4.2c.4.1.8.3,1.2.5l-.2.5c-.3-.2-.7-.4-1.1-.5-.4-.1-.8-.2-1.2-.2-.8,0-1.4.2-1.7.5s-.6.7-.6,1.2.1.7.3.9c.2.2.5.4.8.5.3.1.7.2,1.3.4.6.2,1.1.3,1.5.4.4.1.7.4.9.6.3.3.4.7.4,1.2s-.1.8-.3,1.1c-.2.3-.6.6-1,.8-.5.2-1,.3-1.7.3s-1.2-.1-1.7-.3Z"/>
          <path class="st32" d="M349.6,21.7c.5.5.7,1.1.7,2v3.6h-.6v-3.6c0-.7-.2-1.2-.5-1.6-.4-.4-.8-.5-1.5-.5s-1.3.2-1.7.7c-.4.4-.6,1-.6,1.8v3.3h-.6v-8.8h.6v3.9c.2-.4.5-.8,1-1,.4-.2.9-.4,1.5-.4s1.4.2,1.8.7Z"/>
          <path class="st32" d="M353.9,19.4c0,0-.1-.2-.1-.3s0-.2.1-.3c0,0,.2-.1.3-.1s.2,0,.3.1c0,0,.1.2.1.3s0,.2-.1.3c0,0-.2.1-.3.1s-.2,0-.3-.1ZM354,21h.6v6.2h-.6v-6.2Z"/>
          <path class="st32" d="M363.1,21.7c.5.5.7,1.1.7,2v3.6h-.6v-3.6c0-.7-.2-1.2-.5-1.6-.4-.4-.8-.5-1.5-.5s-1.3.2-1.7.7c-.4.4-.6,1-.6,1.8v3.3h-.6v-6.2h.6v1.3c.2-.4.5-.8,1-1,.4-.2.9-.4,1.5-.4s1.4.2,1.8.7Z"/>
          <path class="st32" d="M372.3,21l-3.2,7.1c-.2.5-.5.9-.8,1.2-.3.2-.7.3-1.1.3s-.6,0-.8-.1c-.2,0-.5-.2-.6-.4l.3-.5c.3.3.7.5,1.2.5s.6,0,.8-.2c.2-.2.4-.5.6-.9l.3-.8-2.8-6.2h.6l2.5,5.6,2.5-5.6h.6Z"/>
          <path class="st32" d="M385.6,23.6c.3.4.5.8.5,1.4s-.3,1.2-.8,1.6c-.5.4-1.3.6-2.3.6h-3.7v-8.3h3.5c.9,0,1.6.2,2.1.6.5.4.8.9.8,1.6s-.1.9-.4,1.2c-.2.3-.6.6-1,.7.6.1,1,.3,1.4.7ZM379.9,19.4v3.3h2.8c.7,0,1.3-.1,1.7-.4.4-.3.6-.7.6-1.2s-.2-1-.6-1.2c-.4-.3-1-.4-1.7-.4h-2.8ZM384.8,26.3c.4-.3.6-.7.6-1.3s-.2-1-.6-1.3c-.4-.3-1-.4-1.8-.4h-3.1v3.4h3.1c.8,0,1.4-.1,1.8-.4Z"/>
          <path class="st32" d="M394.6,21v6.2h-.6v-1.3c-.2.4-.5.8-.9,1-.4.2-.9.4-1.4.4-.8,0-1.4-.2-1.9-.7-.5-.5-.7-1.1-.7-2v-3.6h.6v3.6c0,.7.2,1.2.5,1.6.4.4.9.5,1.5.5s1.3-.2,1.7-.7c.4-.4.6-1,.6-1.8v-3.3h.6Z"/>
          <path class="st32" d="M401.4,26.8c-.2.1-.3.3-.6.3s-.5.1-.7.1c-.5,0-1-.1-1.2-.4-.3-.3-.4-.7-.4-1.2v-4.1h-1.1v-.5h1.1v-1.4h.6v1.4h2v.5h-2v4c0,.4,0,.7.3.9.2.2.5.3.9.3s.7-.1,1-.3l.2.4Z"/>
          <path class="st32" d="M407.2,26.8c-.2.1-.3.3-.6.3-.2,0-.5.1-.7.1-.5,0-1-.1-1.2-.4-.3-.3-.4-.7-.4-1.2v-4.1h-1.1v-.5h1.1v-1.4h.6v1.4h2v.5h-2v4c0,.4,0,.7.3.9.2.2.5.3.9.3s.7-.1,1-.3l.2.4Z"/>
          <path class="st32" d="M410.7,26.9c-.5-.3-.8-.6-1.1-1.1-.3-.5-.4-1-.4-1.6s.1-1.1.4-1.6c.3-.5.6-.9,1.1-1.1.5-.3,1-.4,1.6-.4s1.1.1,1.6.4c.5.3.8.6,1.1,1.1.3.5.4,1,.4,1.6s-.1,1.1-.4,1.6c-.3.5-.6.9-1.1,1.1-.5.3-1,.4-1.6.4s-1.1-.1-1.6-.4ZM413.5,26.4c.4-.2.7-.5.9-.9.2-.4.3-.8.3-1.4s-.1-1-.3-1.4c-.2-.4-.5-.7-.9-.9-.4-.2-.8-.3-1.3-.3s-.9.1-1.3.3c-.4.2-.7.5-.9.9s-.3.8-.3,1.4.1,1,.3,1.4c.2.4.5.7.9.9.4.2.8.3,1.3.3s.9-.1,1.3-.3Z"/>
          <path class="st32" d="M423.3,21.7c.5.5.7,1.1.7,2v3.6h-.6v-3.6c0-.7-.2-1.2-.5-1.6-.4-.4-.8-.5-1.5-.5s-1.3.2-1.7.7c-.4.4-.6,1-.6,1.8v3.3h-.6v-6.2h.6v1.3c.2-.4.5-.8,1-1,.4-.2.9-.4,1.5-.4s1.4.2,1.8.7Z"/>
          <path class="st32" d="M427.7,27.1c-.5-.2-.8-.3-1.1-.6l.3-.5c.3.2.6.4,1,.5.4.1.8.2,1.3.2.6,0,1.1-.1,1.4-.3.3-.2.4-.5.4-.9s0-.5-.2-.6c-.2-.2-.4-.3-.6-.3-.2,0-.6-.1-1-.2-.5,0-.9-.2-1.2-.3-.3-.1-.6-.3-.8-.5-.2-.2-.3-.5-.3-1s.2-.9.6-1.2,1-.5,1.7-.5.8,0,1.2.2c.4.1.7.3,1,.4l-.3.5c-.3-.2-.5-.3-.9-.4-.3,0-.7-.1-1-.1-.6,0-1,.1-1.3.3-.3.2-.4.5-.4.8s0,.5.2.6c.2.2.4.3.6.3.2,0,.6.2,1,.2.5,0,.9.2,1.2.3.3,0,.5.3.8.5.2.2.3.5.3.9s-.2.9-.6,1.2c-.4.3-1,.5-1.8.5s-1,0-1.4-.2Z"/>
          <path class="st32" d="M439.4,27c-.6-.2-1-.5-1.3-.8l.3-.5c.3.3.7.6,1.2.8.5.2,1,.3,1.6.3.8,0,1.4-.2,1.8-.5.4-.3.6-.7.6-1.2s-.1-.7-.3-.9c-.2-.2-.5-.4-.8-.5-.3-.1-.7-.2-1.3-.4-.6-.2-1.1-.3-1.5-.4-.4-.1-.7-.4-.9-.7-.3-.3-.4-.7-.4-1.2s.1-.8.3-1.1c.2-.3.5-.6,1-.8.4-.2,1-.3,1.6-.3s.9,0,1.4.2c.4.1.8.3,1.2.5l-.2.5c-.3-.2-.7-.4-1.1-.5-.4-.1-.8-.2-1.2-.2-.8,0-1.4.2-1.7.5-.4.3-.6.7-.6,1.2s.1.7.3.9c.2.2.5.4.8.5.3.1.7.2,1.3.4.6.2,1.1.3,1.5.4.4.1.7.4.9.6.3.3.4.7.4,1.2s-.1.8-.3,1.1c-.2.3-.6.6-1,.8-.5.2-1,.3-1.7.3s-1.2-.1-1.7-.3Z"/>
          <path class="st32" d="M452.4,24.3h-5.3c0,.5.1.9.4,1.3.2.4.5.7.9.9.4.2.8.3,1.3.3s.8,0,1.1-.2c.3-.1.6-.4.9-.6l.3.4c-.3.3-.6.6-1,.8s-.9.3-1.3.3-1.2-.1-1.7-.4c-.5-.3-.9-.6-1.1-1.1-.3-.5-.4-1-.4-1.6s.1-1.1.4-1.6c.3-.5.6-.9,1.1-1.1.5-.3,1-.4,1.5-.4s1.1.1,1.5.4c.4.3.8.6,1.1,1.1.3.5.4,1,.4,1.6v.2ZM448.3,21.8c-.3.2-.6.5-.8.8-.2.4-.3.8-.4,1.2h4.8c0-.4-.1-.8-.4-1.2-.2-.3-.5-.6-.8-.8-.3-.2-.7-.3-1.2-.3s-.8,0-1.2.3Z"/>
          <path class="st32" d="M458.5,26.8c-.2.1-.3.3-.6.3s-.5.1-.7.1c-.5,0-1-.1-1.2-.4-.3-.3-.4-.7-.4-1.2v-4.1h-1.1v-.5h1.1v-1.4h.6v1.4h2v.5h-2v4c0,.4,0,.7.3.9.2.2.5.3.9.3s.7-.1,1-.3l.2.4Z"/>
        </g>
      </g>
      <g>
        <rect class="st36" x="222.6" y="-80.9" width="77.8" height="55.5" rx="9.2" ry="9.2"/>
        <rect class="st24" x="224.6" y="-79.5" width="73.9" height="52.7" rx="9.2" ry="9.2"/>
        <rect class="st9" x="223.9" y="-79.4" width="75.2" height="26.9" rx="-12.8" ry="-12.8"/>
      </g>
      <g>
        <rect class="st31" x="108.3" y="-81.6" width="77.8" height="55.5" rx="9.2" ry="9.2"/>
        <rect class="st2" x="110.2" y="-80.2" width="73.9" height="52.7" rx="9.2" ry="9.2"/>
        <rect class="st14" x="109.6" y="-80.1" width="75.2" height="26.9" rx="-13.1" ry="-13.1"/>
      </g>
    </g>
  </g>
</svg>