<?xml version="1.0" encoding="UTF-8"?>
<svg id="Layer_1" xmlns="http://www.w3.org/2000/svg" version="1.1" viewBox="0 0 199.3 93.7">
  <!-- Generator: Adobe Illustrator 29.1.0, SVG Export Plug-In . SVG Version: 2.1.0 Build 142)  -->
  <defs>
    <style>
      .st0 {
        fill: #c65959;
      }
    </style>
  </defs>
  <polygon class="st0" points="49.1 79.4 45.9 79.4 42 72.4 45.9 66.7 45.9 59.1 22.8 59.1 22.8 62.7 22.8 77.6 31.4 77.7 31.6 66.7 37.2 66.6 34 72.4 42.2 87.9 57.8 87.9 57.8 59.1 49.1 59.1 49.1 79.4"/>
  <polygon class="st0" points="134.5 79.4 131.3 79.4 127.4 72.4 131.3 66.7 131.3 59.1 108.2 59.1 108.2 62.7 108.2 77.6 116.8 77.7 117 66.7 122.6 66.6 119.4 72.4 127.6 87.9 143.2 87.9 143.2 59.1 134.5 59.1 134.5 79.4"/>
  <polygon class="st0" points="34.5 28.7 43.9 28.7 65.6 11 57.1 11 50.6 11 40.4 20.4 33.7 11 11.9 11 19.7 19.1 28.5 19.2 34.5 28.7"/>
  <path class="st0" d="M62,41v16.1h22.3v-16.1h4.2v43.5c0,0,8.6,3,8.6,3V31.9h-35.1v9.1ZM70.6,40.9h5.2v10h-5.1v-10c0,0,0,0,0,0Z"/>
  <path class="st0" d="M22.6,41v16.1h22.3v-16.1h4.2v16.2c0,0,8.6.1,8.6.1v-25.4H22.6v9.1ZM31.1,40.9h5.2v10h-5.1v-10c0,0,0,0,0,0Z"/>
  <rect class="st0" x="100.1" y="32" width="8.8" height="9"/>
  <polygon class="st0" points="112.6 31.8 112.5 41 119.2 41 119.2 51 127.9 51 128 41 134.2 41 134.4 57 143 57 142.9 31.8 112.6 31.8"/>
  <polygon class="st0" points="158.4 41.1 176.3 40.9 176.2 31.8 149.8 31.8 149.8 57.1 167.3 57.1 167.3 84 176 87.5 176 49.7 158.4 49.7 158.4 41.1"/>
  <polygon class="st0" points="189.6 31.8 180.4 31.8 180.4 82.5 189.4 87.5 189.6 31.8"/>
</svg>