<?xml version="1.0" encoding="UTF-8"?>
<svg id="Layer_1" data-name="Layer 1" xmlns="http://www.w3.org/2000/svg" viewBox="0 0 383.13 177.06">
  <defs>
    <style>
      .cls-1 {
        fill: #f65b0e;
      }

      .cls-2 {
        fill: #029b6b;
      }

      .cls-3 {
        fill: #eecc05;
      }

      .cls-4 {
        fill: #2d6b63;
      }

      .cls-5 {
        fill: #1fb3e4;
      }
    </style>
  </defs>
  <path class="cls-5" d="M185.78,48.09l-.46.38.46,8.15c.01,4.3,0,8.6,0,12.9s0,8.47,0,12.71c0,2.62-.03,5.25,0,7.87,0,.32-.12.84.18,1.04,0,.06,0,.13,0,.19l-.55.85.36-.09.18,2.46c0,3.79,0,7.59,0,11.38,0,9.07-.09,18.15,0,27.22,0,.32-.12.84.18,1.04,0,2.78,0,5.57,0,8.35,0,11.08.1,22.05.01,33.1,0,.36,0,.72-.19,1.04l-18.41-7.33-.53-99.89-8.37-1.28-.48,2.48c-.4,4-.22,8.28-.18,12.43,0,.32-.12.84.18,1.04v21.62c-.41.11-.59-.34-.63-.35-.22-.05-.74.33-1.07.36-.84.06-1.87-.22-2.62.18-4.75.04-9.5,0-14.25,0-1.95,0-3.91-.02-5.86,0-.31,0-.8-.12-.99.19-5.83,0-11.67.03-17.5,0-1.86,0-3.76.11-5.59-.19l-.18-57.47,76.3-.38ZM128.79,68.76c-.24.01-.48-.04-.71,0-.03.44-.12.88-.19,1.32-.42,2.79-.04,8.38,0,11.48,0,.32-.12.84.18,1.04,0,.54,0,1.08,0,1.61v8.25h-.36s0,.19,0,.19h11.36v-23.8c0-.14-.22-.21-.37-.21-1.78,0-3.61.1-5.4.11-1.05-.34-2.4-.21-3.52-.19-.3,0-.8-.12-.99.19Z"/>
  <path class="cls-1" d="M337.48,48.09c4.67,0,10.11-.32,14.71,0,.45.03.88.19,1.34.21.21.23-.2,1.85-.14,2.17.01.07.49.65.33,1.23l-.36,16.5-38.96.68.74,19.79,38.23.39c0,5.69,0,11.38,0,17.07-.3.24-.3,1.09,0,1.33,0,1.07,0,2.15,0,3.22-.3.2-.18.72-.18,1.04-.12,9.89,0,19.8,0,29.68v35.09s-17.32-8.06-17.32-8.06l-.92-61.24-.14-.23c-6.84-.21-13.72-.52-20.57-.65-1.09-.35-2.45-.19-3.61-.19-2.39,0-4.76-.13-7.12-.2-2.5-.07-5,.11-7.49-.18l-.9-57.28c14.12-.19,28.25-.36,42.39-.38Z"/>
  <path class="cls-1" d="M71.25,96.64c0,2.91,0,5.82,0,8.73l-48.53.67.91-57.19,75.22-.38c.14,4.77.07,9.56.17,14.33.27,12.47.73,24.95.73,37.45v3.79l-19.66.57-.18-35.66-8.84-.19c0,7.2,0,14.42,0,21.62,0,1.74-.02,3.48,0,5.22,0,.32-.12.84.18,1.04ZM52.67,68h-11.54v23.71h11.54v-23.71Z"/>
  <path class="cls-4" d="M74.31,111.63v17.35c-2.76,3.99-5.54,7.97-8.22,12.03-.4.6-.96.63-.77,1.58l9.61,15.7c.45.42.98,0,1.46-.01,1.36-.03,2.7-.11,4.06-.19v-45.71h20.2v64.49l-35.69-.41-17.68-33.49c-.12-.49.44-.76.7-1.09-.63-.01.03-.95.27-1.43,1.79-3.61,3.9-7.08,5.73-10.67.25-.27.07-1.6-.15-1.67l-10.53.39-.18,24.66-19.84-.57-.54-41.35,51.59.38Z"/>
  <path class="cls-2" d="M210.68,120.54c.01-1.71.16-3.81.18-5.21,0-.97-.33-2.68.55-3.04-.44-.1-.35-.76-.54-1.23.28.14,1.7-.03,1.77.02.09.06.13.5.3.55.24.07.69-.69,1.08-.53.1.04.07.32.21.35.44.09,1.24-.2,1.71-.09.41.1.27.66.87.46l-.36-.38c.5-.11.96-.51,1.51-.39.05.01.47,1.09.39,0l1.63.57c.42-.96.22.16.26.19.37.26.39-.36.45-.38.53-.14.44.38.55.39.36.04,1.13-.52,1.44-.77.26.89.73-.08,1.35,0l-.36.38c.21-.06,1.12.49,1.18.56.34.4-.36.69-.46.96.38-.28.59.4.63.38.05-.02.63-.62.63-.66,0-.09-.64-.55-.54-.66.38.04.65-.29.99-.34.58-.09,1.88.41,2.18-.03.14-.21-.16-.5-.1-.57.3-.36.38.37.47.39.39.06.79-.29,1.2-.18.26.07.4.52.77.55.52.05.64-.46.88-.5.58-.1,1.92.57,2.18.45.12-.06.03-.35.18-.35.25.01.4.31.71.36.7.11,2.57.13,3.26.04.35-.04.25-.35.48-.45,1.09-.47,2.64.72,3.21.35.16-.11.32-.66.45-.66.05,0,.26.4.51.35.16-.03.33-.35.58-.36.22,0,.4.29.59.33.62.15.9-.19,1.22.62.47.12.17-.44.29-.54.06-.05.68-.05.7-.02.04.05-.05.42.01.61.17.51.99.95.71-.23.4.07.76.24,1.18.21.36-.02.21-.59.72-.41.17.06-.03.48.27.38.53-1.55,1.64.28,2.62.21.64-.04.84-.72,1.45-.78.48-.05.17.64.54.76.39.12.54-.3.72-.38.15-.07.02.33.2.38,1.07.3.06-.75.88-.76.08,0,.5.75,1.27.78.34.01.18-.69.99-.21.06-.07-.11-.54.09-.58.72-.13,2.29.3,3.16,0-.02,2.36-.16,4.75-.09,7.12.1,3.22.77,6.58.45,9.85-.09.9-.3.98-.61,1.63-.39.8-.92,1.68-1.37,2.45-.98,1.67-2.29,3.18-3.43,4.74-.75-.21-.74.67-.78.71-1.13,1.23-.96.53-1.56,2.32-.2.04-.62-.06-.72,0-.02.01.12.25.08.39-.12.48-.5,1.1-.08,1.5l8.65,14.52c.59.62,3.02.58,3.88.67.21.02.38.25.54.27.49.06,1.29-.14,1.89.09.03-4.87-.04-9.74,0-14.6l.5-.47c.01-1.66.05-3.31-.07-4.96-.02-.32.33-.51-.25-.44.05-7.65-.29-15.43.18-23.05.03-.56-.15-2.62.17-2.86.26-.19,2.19-.08,2.72-.08.96.35,2.21.19,3.25.19,4.46,0,8.9.02,13.35.19,0,.44-.01.89,0,1.33v59.17c0,1.45,0,2.91,0,4.36-3.12,0-6.26,0-9.38,0-1.28,0-2.76-.16-3.97.19-5.77,0-11.55.04-17.32,0-1.44-.49-3.01-.35-4.51-.38-3.77-6.62-7.04-14-10.46-20.86.57-.76-.45-1.21-.67-1.58-.2-.34-.25-1.37-.96-1.46-1.81-3.63-3.61-7.27-5.4-10.9l7.02-13.18-12.43-.18c-.03,1.64,0,3.28-.01,4.92-.01,2.37-.03,4.75,0,7.12,0,.32-.12.84.18,1.04v.38l-.18.09.18.09c0,1.32.01,2.67,0,3.98-.02,1.7.1,3.52-.02,5.2-.04.61-.19,1.96-.82,2.16-3.09-.11-6.46.28-9.52.03-.57-.05-1.93-.08-1.9-.76h-.17c.05.37-.21.45-.52.47-.67.04-1.35-.95-1.29-.09-.33.08-.06-.38-.27-.38s.06.46-.27.38l-.09-.38c-.22.73-1.05.48-1.26-.19-.28.95-1.34.18-1.89.95-.18,0-.36,0-.54,0-.38-8-.06-16.06-.18-24.09.47-.76,0-1.11-.02-1.61-.03-2.08-.02-4.36.02-6.36,0-.06,0-.13,0-.19l.18-.09-.18-.09c0-.06,0-.13,0-.19ZM228.8,140.45v.19c.12-.06.12-.13,0-.19Z"/>
  <path class="cls-1" d="M254.33,68.95c-.12.06-.49-.13-.55.1l-1.07,23.42-18.58-.57.54-23.14-14.79-.95-.36-20.1,67.54.38c.2.03.09.71.1.95-.3.2-.18.72-.18,1.04-.11,10.98,0,22.06,0,32.91,0,4.93.01,9.87,0,14.79-.34.22-.29.41-.28.76.02,1.17.08,2.34.1,3.51,0,.32-.12.84.18,1.04,0,1.07,0,2.15,0,3.23l-19.84-.38.72-37.56c-1.91.26-3.84.18-5.77.19s-6.3-.35-7.76.38Z"/>
  <path class="cls-3" d="M362.19,79c-.03-3.82.16-7.68-.19-11.47.52-5.9-.66-13.04,0-18.79.02-.2,0-.44.18-.57l18.66-.08c.12.03.25.87.29,0h.18c-.08.52.26.23.36.31.4.3.49.81.54,1.3.26,2.39-.02,5.89,0,8.44.01,1.48-.16,3.14.18,4.55,0,7.07,0,14.17,0,21.24,0,1.47-.15,3.14.18,4.55,0,7.14-.02,14.32,0,21.43,0,1.61-.02,3.23,0,4.84,0,.32-.12.84.18,1.04,0,6.63,0,13.28,0,19.91,0,1.47-.15,3.14.18,4.55,0,7.14,0,14.29,0,21.43,0,1.54-.15,3.27.18,4.74,0,.32,0,.63,0,.95-.21.49-.29,1.49-.29,2.02,0,1.99.09,4.04.11,6.04,0,.32-.12.84.18,1.04,0,.17.09.52-.09.57l-20.12-12.07c-.32-8.57-.1-17.17-.17-25.77-.13-16.45-.43-32.94-.55-49.4.3-.2.18-.72.18-1.04.02-2.04.08-4.05.13-6.07l-.32-3.7Z"/>
  <path class="cls-5" d="M27.96,18.31c-3.4,0-7.63.33-10.92,0-.31-.03-.61-.01-.87-.22L0,.3c8.51.14,17.02.06,25.53.18,5.61.08,11.33.18,16.94.39.97.04,3.63-.22,4.31.02.07.03.92,1.04,1.02,1.2,3.25,4.79,7.26,9.32,10.38,14.31.37.59,1.45,1.37,1.83,1.97.17.28.39,1.22.44,1.26.03.03,1.05-.23.71.19-.06.07-.43-.16-.36.19.92-.04,1.07,1.03,1.71,1.52l15.97-15.93c.26-.09.13.73.54.38.05-.05.16-.99.44-1.15l4.96-4.84,11.83.1c.43,0,.82.2,1.25.21,6.3.1,12.56.1,18.86.18l-1.71,1.33c-1.11,1.08-2.29,2.17-3.52,3.03-.88.61-1.91.67-1.98,1.9-2.03,1.79-4.11,3.53-6.13,5.31-.92.02-1.64,1.11-2.28,1.78-.09.09-.04.28-.07.31-6.23,6.43-14.09,11.87-20.47,18.22-.12.16-.31.13-.45.18-.63.22-.48.29-1.13.76-1.57,1.15-3.46,2.8-4.76,4.18-.05.05-.76.69-.81.71-.08.03-.34-.14-.56-.1-.78.12-.26.39-.51.78-.34.54-1.42.53-1.25,1.64-.18.14-.28.6-.67.72-.56.17-1.73.02-2.4.04-1.21-.35-2.69-.19-3.97-.19-3.42,0-6.86,0-10.28,0-.97-.39-2.2-.14-3.25-.19-.4-.02-.86.13-1.18-.19l-13.43-21.92-.32-.24c-.31-.09-.64-.02-.95-.04-.19-.31-.68-.19-.99-.19-1.77-.02-3.55,0-5.32,0Z"/>
  <path class="cls-1" d="M212.48,68.38l-19.48.19v-19.44c0-.06-.23-.15-.18-.28h19.12c0,.88,0,1.77,0,2.66.01,1.61-.16,3.39.18,4.93.07,2.79.18,5.54.18,8.35,0,1.14-.18,2.52.18,3.6Z"/>
</svg>