<?xml version="1.0" encoding="UTF-8"?>
<svg id="Layer_1" data-name="Layer 1" xmlns="http://www.w3.org/2000/svg" viewBox="0 0 179.7 94.25">
  <defs>
    <style>
      .cls-1 {
        fill: #c65959;
      }

      .cls-2 {
        fill: #515251;
      }
    </style>
  </defs>
  <g>
    <path class="cls-1" d="M56.7.45h6.61v14.48h8.85v5.12h-15.46V.45Z"/>
    <path class="cls-1" d="M72.91,10.25c0-5.94,4.68-10.25,11.06-10.25s11.06,4.31,11.06,10.25-4.68,10.25-11.06,10.25-11.06-4.31-11.06-10.25ZM88.36,10.25c0-3.05-1.96-4.9-4.4-4.9s-4.4,1.85-4.4,4.9,1.96,4.9,4.4,4.9,4.4-1.85,4.4-4.9Z"/>
    <path class="cls-1" d="M105.42,13.55l-1.48,1.65v4.84h-6.5V.45h6.5v7.11l6.44-7.11h7.2l-7.84,8.62,8.23,10.98h-7.64l-4.9-6.5Z"/>
    <path class="cls-1" d="M118.86.45h6.61v14.48h8.85v5.12h-15.46V.45Z"/>
    <path class="cls-1" d="M149.77,16.63h-7.45l-1.32,3.42h-6.72L142.85.45h6.5l8.57,19.6h-6.83l-1.32-3.42ZM147.95,11.87l-1.9-4.93-1.9,4.93h3.81Z"/>
    <path class="cls-1" d="M158.98.45h9.66c6.55,0,11.06,3.72,11.06,9.8s-4.51,9.8-11.06,9.8h-9.66V.45ZM168.36,14.9c2.77,0,4.68-1.65,4.68-4.65s-1.9-4.65-4.68-4.65h-2.77v9.3h2.77Z"/>
  </g>
  <polygon class="cls-2" points="46.52 55 46.52 61.3 37.37 61.57 37.37 56.6 46.52 55"/>
  <polygon class="cls-2" points="32.64 57.44 32.64 61.6 10.99 61.6 10.99 61.24 32.64 57.44"/>
  <path class="cls-1" d="M10.99,25.54v35.45l21.65-4.21v-22.24h4.73v21.32l9.15-1.78v-28.54H10.99ZM25.11,52.58h-6.59l-.09-18.04,6.8-.21-.12,18.25Z"/>
  <polygon class="cls-2" points="46.64 63.31 46.64 92.36 30.52 92.48 22.05 76.6 25.23 70.77 18.31 70.84 18.17 81.89 10.87 81.77 10.87 63.31 15.57 63.31 33.93 63.14 33.93 70.83 30.05 76.6 33.93 83.55 37.19 83.55 37.19 63.31 46.64 63.31"/>
  <polygon class="cls-2" points="124.19 85.32 120.93 85.32 117.05 78.37 120.93 72.6 120.93 64.9 102.57 65.08 97.88 65.08 97.88 68.67 97.88 83.54 105.17 83.66 105.32 72.61 112.23 72.54 109.05 78.37 117.52 94.25 133.64 94.13 133.64 65.08 124.2 65.08 124.19 85.32"/>
  <polygon class="cls-1" points="22.59 22.29 31.94 22.29 53.63 4.56 45.15 4.58 38.65 4.58 28.41 13.93 21.71 4.58 0 4.58 7.79 12.64 16.58 12.72 22.59 22.29"/>
  <polygon class="cls-1" points="85.58 25.54 85.58 46.48 76.54 48.24 76.58 34.54 71.84 34.54 71.76 49.17 64.19 50.65 64.31 34.54 57.75 34.48 57.59 51.93 50.05 53.39 50.05 25.54 85.58 25.54"/>
  <polygon class="cls-2" points="85.58 48.14 85.58 94.19 76.43 91.04 76.54 49.73 85.58 48.14"/>
  <polygon class="cls-2" points="71.76 50.57 71.7 61.6 50.05 61.6 50.05 54.38 60.29 52.58 64.17 52.58 64.18 51.9 71.76 50.57"/>
  <rect class="cls-1" x="88.13" y="25.57" width="8.78" height="8.98"/>
  <polygon class="cls-2" points="116.11 42.78 116.23 54.57 106.93 54.57 106.75 44.42 116.11 42.78"/>
  <polygon class="cls-1" points="132 37.46 122.32 39.34 122.28 34.54 116.02 34.54 116.08 40.55 106.72 42.37 106.58 34.54 99.34 34.54 99.43 25.36 131.99 25.36 132 37.46"/>
  <polygon class="cls-2" points="132.02 61.01 122.49 61.42 122.34 41.68 132 39.99 132.02 61.01"/>
  <polygon class="cls-1" points="162.89 25.39 157.63 32.47 157.62 32.47 146.53 34.63 146.49 34.63 146.49 34.64 136.75 36.53 136.75 25.36 162.89 25.39"/>
  <polygon class="cls-2" points="164.05 52.3 164.05 94.1 154.8 94.1 155.34 61.51 136.75 61.51 136.75 39.15 146.48 37.44 146.4 52.3 164.05 52.3"/>
  <polygon class="cls-2" points="168.46 33.58 177.62 31.98 177.4 94.01 168.46 89.07 168.46 33.58"/>
  <polygon class="cls-1" points="177.64 25.14 177.63 28.58 168.46 30.36 168.46 25.14 177.64 25.14"/>
</svg>