<?xml version="1.0" encoding="UTF-8"?>
<svg id="Layer_1" xmlns="http://www.w3.org/2000/svg" version="1.1" viewBox="0 0 304 304">
  <!-- Generator: Adobe Illustrator 29.1.0, SVG Export Plug-In . SVG Version: 2.1.0 Build 142)  -->
  <defs>
    <style>
      .st0 {
        fill: #1c843c;
        stroke: #000;
        stroke-miterlimit: 10;
      }

      .st1 {
        fill: #46af66;
      }
    </style>
  </defs>
  <rect class="st0" x="-4" y="-2.1" width="317" height="310"/>
  <path class="st1" d="M44.1,224c.6-2.7,3.2-4.5,5.9-3.9,2.7.6,4.5,3.2,3.9,5.9s-3.2,4.5-5.9,3.9c-2-.4-3.5-1.9-3.9-3.9H0v-2h44.1ZM204.1,272c.6-2.7,3.2-4.5,5.9-3.9,2.7.6,4.5,3.2,3.9,5.9-.6,2.7-3.2,4.5-5.9,3.9-2-.4-3.5-1.9-3.9-3.9h-122.1v-2h122.1ZM261.9,226c-.6,2.7-3.2,4.5-5.9,3.9-2.7-.6-4.5-3.2-3.9-5.9.6-2.7,3.2-4.5,5.9-3.9,2,.4,3.5,1.9,3.9,3.9h42.1v2h-42.1ZM261.9,242c-.6,2.7-3.2,4.5-5.9,3.9-2.7-.6-4.5-3.2-3.9-5.9.6-2.7,3.2-4.5,5.9-3.9,2,.4,3.5,1.9,3.9,3.9h42.1v2h-42.1ZM268.1,128c.6-2.7,3.2-4.5,5.9-3.9s4.5,3.2,3.9,5.9c-.6,2.7-3.2,4.5-5.9,3.9-2-.4-3.5-1.9-3.9-3.9h-86.2c-.6,2.7-3.2,4.5-5.9,3.9-2.7-.6-4.5-3.2-3.9-5.9.6-2.7,3.2-4.5,5.9-3.9,2,.4,3.5,1.9,3.9,3.9h86.2ZM12.1,80c.6-2.7,3.2-4.5,5.9-3.9s4.5,3.2,3.9,5.9c-.6,2.7-3.2,4.5-5.9,3.9-2-.4-3.5-1.9-3.9-3.9H0v-2h12.1ZM197.9,114c-.6,2.7-3.2,4.5-5.9,3.9-2.7-.6-4.5-3.2-3.9-5.9.6-2.7,3.2-4.5,5.9-3.9,2,.4,3.5,1.9,3.9,3.9h86.2c.6-2.7,3.2-4.5,5.9-3.9s4.5,3.2,3.9,5.9c-.6,2.7-3.2,4.5-5.9,3.9-2-.4-3.5-1.9-3.9-3.9h-86.2ZM258,12.1c2.7.6,4.5,3.2,3.9,5.9-.6,2.7-3.2,4.5-5.9,3.9-2.7-.6-4.5-3.2-3.9-5.9.4-2,1.9-3.5,3.9-3.9V0h2v12.1ZM194,220.1c2.7.6,4.5,3.2,3.9,5.9-.6,2.7-3.2,4.5-5.9,3.9-2.7-.6-4.5-3.2-3.9-5.9.4-2,1.9-3.5,3.9-3.9v-54.2c-2.7-.6-4.5-3.2-3.9-5.9.6-2.7,3.2-4.5,5.9-3.9,2.7.6,4.5,3.2,3.9,5.9-.4,2-1.9,3.5-3.9,3.9v54.2ZM242,21.9v58.1h62v2h-64V21.9c-2.7-.6-4.5-3.2-3.9-5.9.6-2.7,3.2-4.5,5.9-3.9,2.7.6,4.5,3.2,3.9,5.9-.4,2-1.9,3.5-3.9,3.9ZM258,37.9v26.1h46v2h-48v-28.1c-2.7-.6-4.5-3.2-3.9-5.9.6-2.7,3.2-4.5,5.9-3.9,2.7.6,4.5,3.2,3.9,5.9-.4,2-1.9,3.5-3.9,3.9ZM130,133.9v74.1h16v12.1c2.7.6,4.5,3.2,3.9,5.9-.6,2.7-3.2,4.5-5.9,3.9-2.7-.6-4.5-3.2-3.9-5.9.4-2,1.9-3.5,3.9-3.9v-10.1h-16v-76.1c-2.7-.6-4.5-3.2-3.9-5.9.6-2.7,3.2-4.5,5.9-3.9,2.7.6,4.5,3.2,3.9,5.9-.4,2-1.9,3.5-3.9,3.9h0ZM124.1,112c.6-2.7,3.2-4.5,5.9-3.9,2.7.6,4.5,3.2,3.9,5.9-.6,2.7-3.2,4.5-5.9,3.9-2-.4-3.5-1.9-3.9-3.9h-10.1v48h-28.1c-.6,2.7-3.2,4.5-5.9,3.9-2.7-.6-4.5-3.2-3.9-5.9s3.2-4.5,5.9-3.9c2,.4,3.5,1.9,3.9,3.9h26.1v-48s12.1,0,12.1,0ZM117.9,242c-.6,2.7-3.2,4.5-5.9,3.9-2.7-.6-4.5-3.2-3.9-5.9s3.2-4.5,5.9-3.9c2,.4,3.5,1.9,3.9,3.9h58.1v-74.1c-2.7-.6-4.5-3.2-3.9-5.9.6-2.7,3.2-4.5,5.9-3.9,2.7.6,4.5,3.2,3.9,5.9-.4,2-1.9,3.5-3.9,3.9v76.1h-60.1ZM101.9,178c-.6,2.7-3.2,4.5-5.9,3.9-2.7-.6-4.5-3.2-3.9-5.9s3.2-4.5,5.9-3.9c2,.4,3.5,1.9,3.9,3.9h12.1v48h10.1c.6-2.7,3.2-4.5,5.9-3.9,2.7.6,4.5,3.2,3.9,5.9-.6,2.7-3.2,4.5-5.9,3.9-2-.4-3.5-1.9-3.9-3.9h-12.1v-48h-10.1ZM66,284.1c2.7.6,4.5,3.2,3.9,5.9s-3.2,4.5-5.9,3.9c-2.7-.6-4.5-3.2-3.9-5.9.4-2,1.9-3.5,3.9-3.9v-10.1h-14v30h-2v-32h18v12.1ZM236.1,176c.6-2.7,3.2-4.5,5.9-3.9,2.7.6,4.5,3.2,3.9,5.9-.6,2.7-3.2,4.5-5.9,3.9-2-.4-3.5-1.9-3.9-3.9h-10.1v94h48v32h-2v-30h-48v-98h12.1ZM261.9,146c-.6,2.7-3.2,4.5-5.9,3.9-2.7-.6-4.5-3.2-3.9-5.9.6-2.7,3.2-4.5,5.9-3.9,2,.4,3.5,1.9,3.9,3.9h12.1v44.1c2.7.6,4.5,3.2,3.9,5.9-.6,2.7-3.2,4.5-5.9,3.9-2.7-.6-4.5-3.2-3.9-5.9.4-2,1.9-3.5,3.9-3.9v-42.1h-10.1ZM197.9,242c-.6,2.7-3.2,4.5-5.9,3.9-2.7-.6-4.5-3.2-3.9-5.9.6-2.7,3.2-4.5,5.9-3.9,2,.4,3.5,1.9,3.9,3.9h10.1v-80h16v-14h-42.1c-.6,2.7-3.2,4.5-5.9,3.9-2.7-.6-4.5-3.2-3.9-5.9.6-2.7,3.2-4.5,5.9-3.9,2,.4,3.5,1.9,3.9,3.9h44.1v18h-16v80h-12.1ZM284.1,32c.6-2.7,3.2-4.5,5.9-3.9s4.5,3.2,3.9,5.9c-.6,2.7-3.2,4.5-5.9,3.9-2-.4-3.5-1.9-3.9-3.9h-12.1V0h2v32h10.1,0ZM98,101.9v44.1h-44.1c-.6,2.7-3.2,4.5-5.9,3.9-2.7-.6-4.5-3.2-3.9-5.9s3.2-4.5,5.9-3.9c2,.4,3.5,1.9,3.9,3.9h42.1v-42.1c-2.7-.6-4.5-3.2-3.9-5.9s3.2-4.5,5.9-3.9,4.5,3.2,3.9,5.9c-.4,2-1.9,3.5-3.9,3.9ZM53.9,34c-.6,2.7-3.2,4.5-5.9,3.9s-4.5-3.2-3.9-5.9,3.2-4.5,5.9-3.9c2,.4,3.5,1.9,3.9,3.9h26.1V0h2v34h-28.1ZM114,37.9v28.1h-32v64h-12.1c-.6,2.7-3.2,4.5-5.9,3.9-2.7-.6-4.5-3.2-3.9-5.9.6-2.7,3.2-4.5,5.9-3.9,2,.4,3.5,1.9,3.9,3.9h10.1v-64h32v-26.1c-2.7-.6-4.5-3.2-3.9-5.9s3.2-4.5,5.9-3.9c2.7.6,4.5,3.2,3.9,5.9-.4,2-1.9,3.5-3.9,3.9ZM101.9,82c-.6,2.7-3.2,4.5-5.9,3.9s-4.5-3.2-3.9-5.9,3.2-4.5,5.9-3.9c2,.4,3.5,1.9,3.9,3.9h26.1v-42.1c-2.7-.6-4.5-3.2-3.9-5.9s3.2-4.5,5.9-3.9c2.7.6,4.5,3.2,3.9,5.9-.4,2-1.9,3.5-3.9,3.9v44.1h-28.1ZM117.9,18c-.6,2.7-3.2,4.5-5.9,3.9s-4.5-3.2-3.9-5.9,3.2-4.5,5.9-3.9c2,.4,3.5,1.9,3.9,3.9h28.1v44.1c2.7.6,4.5,3.2,3.9,5.9-.6,2.7-3.2,4.5-5.9,3.9s-4.5-3.2-3.9-5.9c.4-2,1.9-3.5,3.9-3.9V18h-26.1ZM220.1,288c.6-2.7,3.2-4.5,5.9-3.9,2.7.6,4.5,3.2,3.9,5.9-.6,2.7-3.2,4.5-5.9,3.9-2-.4-3.5-1.9-3.9-3.9h-122.1v14h-2v-16h124.1ZM242,149.9v10.1h16v34h-16v62h48v48h-2v-46h-48v-66h16v-30h-16v-12.1c-2.7-.6-4.5-3.2-3.9-5.9.6-2.7,3.2-4.5,5.9-3.9,2.7.6,4.5,3.2,3.9,5.9-.4,2-1.9,3.5-3.9,3.9ZM53.9,18c-.6,2.7-3.2,4.5-5.9,3.9s-4.5-3.2-3.9-5.9,3.2-4.5,5.9-3.9c2,.4,3.5,1.9,3.9,3.9h10.1V2h-16V0h18v18h-12.1ZM165.9,50c-.6,2.7-3.2,4.5-5.9,3.9-2.7-.6-4.5-3.2-3.9-5.9.6-2.7,3.2-4.5,5.9-3.9,2,.4,3.5,1.9,3.9,3.9h26.1V0h50v2h-48v48h-28.1ZM117.9,2c-.6,2.7-3.2,4.5-5.9,3.9S107.5,2.7,108.1,0h2.1c-.5,1.6.3,3.3,1.8,3.8,1.6.5,3.3-.3,3.8-1.8C116.1,1.3,116.1.6,115.8,0h62.2v34h-18v-12.1c-2.7-.6-4.5-3.2-3.9-5.9.6-2.7,3.2-4.5,5.9-3.9,2.7.6,4.5,3.2,3.9,5.9-.4,2-1.9,3.5-3.9,3.9v10.1h14V2h-58.1ZM117.9,98c-.6,2.7-3.2,4.5-5.9,3.9s-4.5-3.2-3.9-5.9,3.2-4.5,5.9-3.9c2,.4,3.5,1.9,3.9,3.9h19.1l32-32h39V21.9c-2.7-.6-4.5-3.2-3.9-5.9.6-2.7,3.2-4.5,5.9-3.9,2.7.6,4.5,3.2,3.9,5.9-.4,2-1.9,3.5-3.9,3.9v44.1h-40.2l-32,32h-19.9ZM146,188.1c2.7.6,4.5,3.2,3.9,5.9-.6,2.7-3.2,4.5-5.9,3.9-2.7-.6-4.5-3.2-3.9-5.9.4-2,1.9-3.5,3.9-3.9v-76.5l31.6-31.6h48.4V21.9c-2.7-.6-4.5-3.2-3.9-5.9.6-2.7,3.2-4.5,5.9-3.9,2.7.6,4.5,3.2,3.9,5.9-.4,2-1.9,3.5-3.9,3.9v60.1h-49.6l-30.4,30.4v75.7ZM162,220.1c2.7.6,4.5,3.2,3.9,5.9-.6,2.7-3.2,4.5-5.9,3.9-2.7-.6-4.5-3.2-3.9-5.9.4-2,1.9-3.5,3.9-3.9v-99.5l24.6-24.6h115.5c.4-2,1.9-3.5,3.9-3.9v2.1c-1.6.5-2.4,2.3-1.8,3.8.3.9,1,1.5,1.8,1.8v2.1c-2-.4-3.5-1.9-3.9-3.9h-114.7l-23.4,23.4v98.7ZM18,156.1c2.7.6,4.5,3.2,3.9,5.9-.6,2.7-3.2,4.5-5.9,3.9-2.7-.6-4.5-3.2-3.9-5.9.4-2,1.9-3.5,3.9-3.9v-3.5l48-48v-56.6h32V0h2v50h-32v55.4l-48,48v2.7ZM50,53.9v43.5L2,145.4v62.6h26.1c.6-2.7,3.2-4.5,5.9-3.9,2.7.6,4.5,3.2,3.9,5.9s-3.2,4.5-5.9,3.9c-2-.4-3.5-1.9-3.9-3.9H0v-65.4l48-48v-42.7c-2.7-.6-4.5-3.2-3.9-5.9s3.2-4.5,5.9-3.9,4.5,3.2,3.9,5.9c-.4,2-1.9,3.5-3.9,3.9ZM34,69.9v19.5L0,123.4v-2.8l32-32v-18.7c-2.7-.6-4.5-3.2-3.9-5.9.6-2.7,3.2-4.5,5.9-3.9s4.5,3.2,3.9,5.9c-.4,2-1.9,3.5-3.9,3.9ZM12.1,32c.6-2.7,3.2-4.5,5.9-3.9s4.5,3.2,3.9,5.9c-.6,2.7-3.2,4.5-5.9,3.9-2-.4-3.5-1.9-3.9-3.9h-2.7L0,43.4v-2.8l8.6-8.6h3.5ZM277.9,50c-.6,2.7-3.2,4.5-5.9,3.9s-4.5-3.2-3.9-5.9c.6-2.7,3.2-4.5,5.9-3.9,2,.4,3.5,1.9,3.9,3.9h18.7l7.4-7.4v2.8l-6.6,6.6h-19.5ZM261.9,210c-.6,2.7-3.2,4.5-5.9,3.9-2.7-.6-4.5-3.2-3.9-5.9.6-2.7,3.2-4.5,5.9-3.9,2,.4,3.5,1.9,3.9,3.9h26.1v-71.4l16-16v2.8l-14,14v72.6h-28.1ZM53.9,242c-.6,2.7-3.2,4.5-5.9,3.9-2.7-.6-4.5-3.2-3.9-5.9s3.2-4.5,5.9-3.9c2,.4,3.5,1.9,3.9,3.9h10.1v-22.6l-23.4-23.4h-18.7c-.6,2.7-3.2,4.5-5.9,3.9-2.7-.6-4.5-3.2-3.9-5.9.6-2.7,3.2-4.5,5.9-3.9,2,.4,3.5,1.9,3.9,3.9h19.5l24.6,24.6v25.4h-12.1ZM204.1,256c.6-2.7,3.2-4.5,5.9-3.9,2.7.6,4.5,3.2,3.9,5.9-.6,2.7-3.2,4.5-5.9,3.9-2-.4-3.5-1.9-3.9-3.9h-108.1v-56.6l-39.4-39.4h-18.7c-.6,2.7-3.2,4.5-5.9,3.9-2.7-.6-4.5-3.2-3.9-5.9.6-2.7,3.2-4.5,5.9-3.9,2,.4,3.5,1.9,3.9,3.9h19.5l40.6,40.6v55.4h106.1,0ZM53.9,258c-.6,2.7-3.2,4.5-5.9,3.9-2.7-.6-4.5-3.2-3.9-5.9s3.2-4.5,5.9-3.9c2,.4,3.5,1.9,3.9,3.9h26.1v-46.6l-31.4-31.4h-26.7c-.6,2.7-3.2,4.5-5.9,3.9-2.7-.6-4.5-3.2-3.9-5.9.6-2.7,3.2-4.5,5.9-3.9,2,.4,3.5,1.9,3.9,3.9h27.5l32.6,32.6v49.4h-28.1ZM34,39.8v1.6l-24.6,24.6H0v-2h8.6l23.4-23.4V0h2v39.8ZM2,300.1c2,.4,3.5,1.9,3.9,3.9h-2.1c-.6-1.6-2.3-2.4-3.8-1.8,0,0,0,0,0,0v-46.2h18v48h-2v-46H2v42.1ZM34,241v63h-2v-62H0v-2h34v1ZM17,18H0v-2h16V0h2v18h-1ZM290,16h14v2h-16V0h2v16ZM258,289v15h-2v-14h-14v14h-2v-16h18v1ZM0,92.1c2.7-.5,5.4,1.2,5.9,3.9,0,.3,0,.6,0,1,0,2.8-2.2,5-5,5-.3,0-.7,0-1-.1v-2.1c1.6.5,3.3-.3,3.8-1.8.5-1.6-.3-3.3-1.8-3.8-.6-.2-1.3-.2-2,0v-2.1ZM80,272h2v32h-2v-32ZM117.9,304h-2.1c-.5-1.6-2.3-2.4-3.8-1.8-.9.3-1.5,1-1.8,1.8h-2.1c.5-2.7,3.2-4.5,5.9-3.9,2,.4,3.5,1.9,3.9,3.9ZM5.9,0c.5,2.7-1.2,5.4-3.9,5.9-.6.1-1.3.1-2,0v-2.1c1.6.6,3.3-.3,3.8-1.8C4.1,1.4,4.1.6,3.8,0h2.1ZM300.1,0h2.1c-.6,1.6.3,3.3,1.8,3.8,0,0,0,0,0,0v2.1c-2.7-.6-4.5-3.2-3.9-5.9,0,0,0,0,0,0ZM304,300.1v2.1c-.9.3-1.5,1-1.8,1.8h-2.1c.4-2,1.9-3.5,3.9-3.9ZM97,100c1.7,0,3-1.3,3-3s-1.3-3-3-3-3,1.3-3,3,1.3,3,3,3ZM97,84c1.7,0,3-1.3,3-3s-1.3-3-3-3-3,1.3-3,3,1.3,3,3,3ZM113,100c1.7,0,3-1.3,3-3s-1.3-3-3-3-3,1.3-3,3,1.3,3,3,3ZM129,116c1.7,0,3-1.3,3-3s-1.3-3-3-3-3,1.3-3,3,1.3,3,3,3ZM129,132c1.7,0,3-1.3,3-3s-1.3-3-3-3-3,1.3-3,3,1.3,3,3,3ZM81,164c1.7,0,3-1.3,3-3s-1.3-3-3-3-3,1.3-3,3,1.3,3,3,3ZM97,180c1.7,0,3-1.3,3-3s-1.3-3-3-3-3,1.3-3,3,1.3,3,3,3ZM129,228c1.7,0,3-1.3,3-3s-1.3-3-3-3-3,1.3-3,3,1.3,3,3,3ZM113,244c1.7,0,3-1.3,3-3s-1.3-3-3-3-3,1.3-3,3,1.3,3,3,3ZM145,228c1.7,0,3-1.3,3-3s-1.3-3-3-3-3,1.3-3,3,1.3,3,3,3ZM145,196c1.7,0,3-1.3,3-3s-1.3-3-3-3-3,1.3-3,3,1.3,3,3,3ZM161,228c1.7,0,3-1.3,3-3s-1.3-3-3-3-3,1.3-3,3,1.3,3,3,3ZM193,244c1.7,0,3-1.3,3-3s-1.3-3-3-3-3,1.3-3,3,1.3,3,3,3ZM193,228c1.7,0,3-1.3,3-3s-1.3-3-3-3-3,1.3-3,3,1.3,3,3,3ZM177,164c1.7,0,3-1.3,3-3s-1.3-3-3-3-3,1.3-3,3,1.3,3,3,3ZM193,164c1.7,0,3-1.3,3-3s-1.3-3-3-3-3,1.3-3,3,1.3,3,3,3ZM209,260c1.7,0,3-1.3,3-3s-1.3-3-3-3-3,1.3-3,3,1.3,3,3,3ZM209,276c1.7,0,3-1.3,3-3s-1.3-3-3-3-3,1.3-3,3,1.3,3,3,3ZM225,292c1.7,0,3-1.3,3-3s-1.3-3-3-3h0c-1.7,0-3,1.3-3,3s1.3,3,3,3ZM241,148c1.7,0,3-1.3,3-3s-1.3-3-3-3-3,1.3-3,3,1.3,3,3,3ZM241,180c1.7,0,3-1.3,3-3s-1.3-3-3-3-3,1.3-3,3,1.3,3,3,3ZM257,148c1.7,0,3-1.3,3-3s-1.3-3-3-3-3,1.3-3,3,1.3,3,3,3ZM273,132c1.7,0,3-1.3,3-3s-1.3-3-3-3-3,1.3-3,3,1.3,3,3,3ZM177,132c1.7,0,3-1.3,3-3s-1.3-3-3-3-3,1.3-3,3,1.3,3,3,3ZM177,148c1.7,0,3-1.3,3-3s-1.3-3-3-3-3,1.3-3,3,1.3,3,3,3ZM193,116c1.7,0,3-1.3,3-3s-1.3-3-3-3-3,1.3-3,3,1.3,3,3,3ZM289,116c1.7,0,3-1.3,3-3s-1.3-3-3-3-3,1.3-3,3,1.3,3,3,3ZM273,52c1.7,0,3-1.3,3-3s-1.3-3-3-3-3,1.3-3,3,1.3,3,3,3ZM289,36c1.7,0,3-1.3,3-3s-1.3-3-3-3-3,1.3-3,3,1.3,3,3,3ZM257,36c1.7,0,3-1.3,3-3s-1.3-3-3-3-3,1.3-3,3,1.3,3,3,3ZM257,20c1.7,0,3-1.3,3-3s-1.3-3-3-3-3,1.3-3,3,1.3,3,3,3ZM241,20c1.7,0,3-1.3,3-3s-1.3-3-3-3-3,1.3-3,3,1.3,3,3,3ZM225,20c1.7,0,3-1.3,3-3s-1.3-3-3-3h0c-1.7,0-3,1.3-3,3s1.3,3,3,3ZM209,20c1.7,0,3-1.3,3-3s-1.3-3-3-3-3,1.3-3,3,1.3,3,3,3ZM49,36c1.7,0,3-1.3,3-3s-1.3-3-3-3-3,1.3-3,3,1.3,3,3,3ZM17,36c1.7,0,3-1.3,3-3s-1.3-3-3-3-3,1.3-3,3,1.3,3,3,3ZM49,52c1.7,0,3-1.3,3-3s-1.3-3-3-3-3,1.3-3,3,1.3,3,3,3ZM33,68c1.7,0,3-1.3,3-3s-1.3-3-3-3-3,1.3-3,3,1.3,3,3,3ZM49,20c1.7,0,3-1.3,3-3s-1.3-3-3-3-3,1.3-3,3,1.3,3,3,3ZM49,260c1.7,0,3-1.3,3-3s-1.3-3-3-3-3,1.3-3,3,1.3,3,3,3ZM65,292c1.7,0,3-1.3,3-3s-1.3-3-3-3-3,1.3-3,3,1.3,3,3,3ZM49,228c1.7,0,3-1.3,3-3s-1.3-3-3-3-3,1.3-3,3,1.3,3,3,3ZM49,244c1.7,0,3-1.3,3-3s-1.3-3-3-3-3,1.3-3,3,1.3,3,3,3ZM33,212c1.7,0,3-1.3,3-3s-1.3-3-3-3-3,1.3-3,3,1.3,3,3,3ZM113,36c1.7,0,3-1.3,3-3s-1.3-3-3-3-3,1.3-3,3,1.3,3,3,3ZM129,36c1.7,0,3-1.3,3-3s-1.3-3-3-3-3,1.3-3,3,1.3,3,3,3ZM113,20c1.7,0,3-1.3,3-3s-1.3-3-3-3-3,1.3-3,3,1.3,3,3,3ZM145,68c1.7,0,3-1.3,3-3s-1.3-3-3-3-3,1.3-3,3,1.3,3,3,3ZM161,52c1.7,0,3-1.3,3-3s-1.3-3-3-3-3,1.3-3,3,1.3,3,3,3ZM161,20c1.7,0,3-1.3,3-3s-1.3-3-3-3-3,1.3-3,3,1.3,3,3,3ZM273,196c1.7,0,3-1.3,3-3s-1.3-3-3-3-3,1.3-3,3,1.3,3,3,3ZM257,212c1.7,0,3-1.3,3-3s-1.3-3-3-3-3,1.3-3,3,1.3,3,3,3ZM257,228c1.7,0,3-1.3,3-3s-1.3-3-3-3-3,1.3-3,3,1.3,3,3,3ZM257,244c1.7,0,3-1.3,3-3s-1.3-3-3-3-3,1.3-3,3,1.3,3,3,3ZM17,180c1.7,0,3-1.3,3-3s-1.3-3-3-3-3,1.3-3,3,1.3,3,3,3ZM17,196c1.7,0,3-1.3,3-3s-1.3-3-3-3-3,1.3-3,3,1.3,3,3,3ZM17,164c1.7,0,3-1.3,3-3s-1.3-3-3-3-3,1.3-3,3,1.3,3,3,3ZM33,164c1.7,0,3-1.3,3-3s-1.3-3-3-3-3,1.3-3,3,1.3,3,3,3ZM17,84c1.7,0,3-1.3,3-3s-1.3-3-3-3-3,1.3-3,3,1.3,3,3,3ZM49,148c1.7,0,3-1.3,3-3s-1.3-3-3-3-3,1.3-3,3,1.3,3,3,3ZM65,132c1.7,0,3-1.3,3-3s-1.3-3-3-3-3,1.3-3,3,1.3,3,3,3Z"/>
</svg>